<svg xmlns="http://www.w3.org/2000/svg" viewBox="0 0 32 32" role="img" aria-labelledby="title desc" shape-rendering="crispEdges">
  <title>Whiplash Loop Pixel Logo</title>
  <desc>Pixel-art reinterpretation of an intense conductor shouting from the left toward a blurred student profile on the right.</desc>
  <style>
    .bg0 { fill: #080504; }
    .bg1 { fill: #1a0d08; }
    .bg2 { fill: #31140b; }
    .s0 { fill: #5f2c13; }
    .s1 { fill: #8a461c; }
    .s2 { fill: #b86426; }
    .s3 { fill: #d88b43; }
    .s4 { fill: #f0b46b; }
    .m0 { fill: #160705; }
    .m1 { fill: #4f150b; }
    .t0 { fill: #d8bf74; }
    .p0 { fill: #6f3418; }
    .p1 { fill: #a95a2c; }
    .p2 { fill: #d88958; }
    .p3 { fill: #f2b98c; }
  </style>

  <rect class="bg0" width="32" height="32" />
  <rect class="bg1" x="0" y="0" width="20" height="32" />
  <rect class="bg2" x="20" y="0" width="12" height="32" />

  <rect class="s0" x="1" y="2" width="12" height="3" />
  <rect class="s1" x="0" y="5" width="14" height="5" />
  <rect class="s2" x="0" y="10" width="15" height="6" />
  <rect class="s3" x="1" y="16" width="14" height="4" />
  <rect class="s2" x="2" y="20" width="12" height="4" />
  <rect class="s1" x="3" y="24" width="10" height="4" />
  <rect class="s0" x="4" y="28" width="9" height="3" />

  <rect class="s4" x="4" y="4" width="5" height="2" />
  <rect class="s4" x="3" y="7" width="4" height="2" />
  <rect class="s4" x="2" y="12" width="3" height="2" />
  <rect class="s3" x="8" y="8" width="5" height="2" />
  <rect class="s3" x="10" y="12" width="4" height="2" />

  <rect class="m0" x="6" y="7" width="4" height="2" />
  <rect class="m0" x="10" y="6" width="3" height="3" />
  <rect class="m1" x="12" y="8" width="2" height="6" />
  <rect class="m1" x="9" y="10" width="3" height="2" />
  <rect class="m1" x="8" y="13" width="3" height="2" />

  <rect class="m0" x="9" y="15" width="6" height="10" />
  <rect class="m1" x="8" y="16" width="1" height="8" />
  <rect class="m1" x="15" y="17" width="1" height="7" />
  <rect class="t0" x="10" y="16" width="4" height="1" />
  <rect class="t0" x="10" y="23" width="3" height="1" />
  <rect class="s4" x="13" y="20" width="1" height="2" />

  <rect class="s0" x="14" y="4" width="3" height="6" />
  <rect class="s1" x="14" y="10" width="4" height="5" />
  <rect class="s2" x="14" y="15" width="4" height="4" />
  <rect class="s1" x="14" y="19" width="3" height="4" />
  <rect class="s0" x="13" y="23" width="3" height="5" />

  <rect class="s1" x="5" y="26" width="3" height="3" />
  <rect class="s0" x="1" y="26" width="3" height="5" />
  <rect class="s2" x="8" y="27" width="3" height="2" />
  <rect class="bg0" x="0" y="24" width="3" height="2" />

  <rect class="bg0" x="18" y="0" width="2" height="32" />
  <rect class="bg0" x="20" y="1" width="2" height="30" opacity="0.45" />

  <rect class="p0" x="22" y="5" width="3" height="18" opacity="0.9" />
  <rect class="p1" x="24" y="4" width="4" height="20" />
  <rect class="p2" x="27" y="5" width="3" height="18" />
  <rect class="p3" x="29" y="7" width="2" height="15" />
  <rect class="p2" x="23" y="23" width="6" height="5" />
  <rect class="p1" x="25" y="28" width="4" height="3" />
  <rect class="bg1" x="22" y="10" width="2" height="6" opacity="0.5" />
  <rect class="bg1" x="26" y="8" width="1" height="15" opacity="0.3" />
  <rect class="bg0" x="31" y="0" width="1" height="32" />

  <rect class="s4" x="18" y="6" width="1" height="1" />
  <rect class="s4" x="19" y="20" width="1" height="1" />
  <rect class="t0" x="17" y="13" width="1" height="1" />
  <rect class="t0" x="21" y="17" width="1" height="1" />
</svg>
